<svg width="93" height="93" viewBox="0 0 93 93" fill="none" xmlns="http://www.w3.org/2000/svg">
<path d="M0 46.5C0 20.8188 20.8188 0 46.5 0V0C72.1812 0 93 20.8188 93 46.5V46.5C93 72.1812 72.1812 93 46.5 93V93C20.8188 93 0 72.1812 0 46.5V46.5Z" fill="#F4F0EC"/>
<path d="M62.0012 55.0749C60.7796 53.8442 57.8211 52.0482 56.3857 51.3243C54.5164 50.3828 54.3625 50.3059 52.8933 51.3974C51.9133 52.1258 51.2617 52.7766 50.1148 52.532C48.9678 52.2874 46.4754 50.9082 44.2931 48.7329C42.1107 46.5576 40.6514 43.9931 40.4061 42.8501C40.1607 41.7071 40.8222 41.0632 41.5438 40.081C42.5607 38.6964 42.4838 38.4657 41.6145 36.5965C40.9368 35.1427 39.0883 32.2121 37.8529 30.9968C36.5313 29.6914 36.5313 29.9222 35.6798 30.276C34.9865 30.5677 34.3214 30.9222 33.6928 31.3352C32.462 32.1529 31.7789 32.8321 31.3012 33.8528C30.8235 34.8735 30.6089 37.2665 33.0759 41.7478C35.5429 46.2292 37.2737 48.5206 40.8561 52.0928C44.4385 55.6649 47.1931 57.5856 51.2202 59.844C56.2018 62.6339 58.1126 62.09 59.1365 61.6131C60.1604 61.1362 60.8427 60.4593 61.662 59.2286C62.076 58.6011 62.4314 57.9368 62.7235 57.2441C63.0781 56.3957 63.3089 56.3957 62.0012 55.0749Z" stroke="#CDA274" stroke-width="2" stroke-miterlimit="10"/>
</svg>
